<?xml version="1.0" encoding="UTF-8"?>
<svg id="Layer_2" data-name="Layer 2" xmlns="http://www.w3.org/2000/svg" viewBox="0 0 329.03 329.03">
  <g id="Osf--Streamline-Simple-Icons">
    <path d="m165.72,0c-22.59-.02-40.92,18.29-40.94,40.88,0,0,0,.02,0,.03.03,8.23,2.54,16.25,7.2,23.03,5.27-14.25,18.83-23.73,34.03-23.77,15.37,0,28.56,9.68,33.82,23.24,4.42-6.67,6.78-14.49,6.8-22.48C206.64,18.33,188.33,0,165.73,0c0,0,0,0-.01,0Z"/>
    <path d="m77.46,36.55c-22.59,0-40.91,18.32-40.91,40.91h0c0,22.59,18.3,40.92,40.9,40.92h.01c22.59,0,40.92-18.3,40.92-40.9v-.03c0-22.59-18.32-40.91-40.91-40.91,0,0,0,0-.01,0Z"/>
    <path d="m251.57,36.55c-22.59,0-40.92,18.3-40.92,40.9h0c0,22.61,18.3,40.93,40.9,40.94h.03c22.59.02,40.92-18.29,40.94-40.88v-.04c0-22.59-18.32-40.91-40.91-40.91,0,0-.02,0-.03,0Z"/>
    <path d="m166.02,47.02c-16.25,0-29.43,13.17-29.43,29.42,0,16.25,13.17,29.43,29.42,29.43,16.26,0,29.43-13.18,29.43-29.43h0c0-16.25-13.18-29.42-29.43-29.42h.01Z"/>
    <path d="m124.92,82.81c-2.51,21.66-19.32,38.9-40.91,41.95,5.26,4.35,11.86,6.74,18.69,6.76,16.26.02,29.45-13.15,29.46-29.41,0,0,0,0,0-.01,0-7.08-2.57-13.93-7.21-19.28h-.03Z"/>
    <path d="m204.19,83.45c-4.32,5.25-6.69,11.84-6.7,18.64,0,16.25,13.18,29.42,29.43,29.42,6.78-.03,13.34-2.4,18.58-6.7-21.56-2.81-38.52-19.8-41.31-41.36Z"/>
    <path d="m40.92,123.6C18.33,123.6,0,141.91,0,164.5c0,0,0,0,0,.01,0,22.59,18.32,40.91,40.91,40.91h0c8.1,0,16.02-2.41,22.74-6.92-14.16-5.32-23.56-18.85-23.59-33.99,0-15.51,9.86-28.82,23.62-33.99-6.73-4.51-14.65-6.92-22.76-6.92Z"/>
    <path d="m288.1,123.6c-8.19.03-16.18,2.51-22.94,7.13,14.08,5.36,23.4,18.85,23.44,33.92,0,15.35-9.67,28.54-23.24,33.82,6.73,4.52,14.64,6.94,22.74,6.95,22.59,0,40.91-18.32,40.91-40.91s-18.32-40.91-40.91-40.91h-.01Z"/>
    <path d="m76.33,135.09c-16.25,0-29.41,13.18-29.42,29.42,0,16.25,13.18,29.41,29.42,29.42,16.25,0,29.43-13.17,29.43-29.42,0-16.25-13.18-29.42-29.43-29.42Z"/>
    <path d="m252.34,135.23c-16.25,0-29.41,13.18-29.42,29.42,0,16.25,13.18,29.41,29.42,29.42,16.25,0,29.43-13.17,29.43-29.42,0-16.26-13.18-29.43-29.43-29.43h0Z"/>
    <path d="m102.71,197.09c-7.03,0-13.83,2.52-19.17,7.1,21.66,2.84,38.65,19.96,41.33,41.64,4.67-5.35,7.25-12.21,7.27-19.32,0-16.25-13.18-29.42-29.43-29.42Z"/>
    <path d="m226.92,197.09c-16.25,0-29.41,13.18-29.42,29.42.02,6.82,2.4,13.42,6.75,18.67,2.96-21.6,20.13-38.48,41.77-41.07-5.33-4.53-12.09-7.02-19.08-7.02h-.01Z"/>
    <path d="m77.46,210.63c-22.59,0-40.91,18.32-40.91,40.91,0,0,0,0,0,.01-.02,22.59,18.29,40.92,40.88,40.94h.03c22.59,0,40.92-18.3,40.92-40.9,0-.01,0-.03,0-.04,0-22.59-18.3-40.92-40.9-40.92,0,0-.02,0-.03,0Z"/>
    <path d="m251.57,210.63c-22.59,0-40.92,18.3-40.92,40.9v.03c-.02,22.59,18.29,40.92,40.88,40.94h.04c22.59.02,40.92-18.29,40.94-40.88v-.05c0-22.59-18.3-40.92-40.9-40.92h-.04Z"/>
    <path d="m164.51,223.08c-16.25,0-29.42,13.18-29.42,29.43,0,16.25,13.17,29.43,29.42,29.43,16.25,0,29.41-13.18,29.42-29.42,0-16.25-13.17-29.43-29.42-29.43h0Z"/>
    <path d="m195.61,271.12c-6.54,10.95-18.34,17.67-31.09,17.7-12.01-.02-23.24-5.97-30-15.9-4.1,5.92-6.29,12.87-6.31,19.99,0,19.95,16.78,36.12,37.48,36.12h0c20.7,0,37.48-16.17,37.48-36.12h0c0-7.86-2.66-15.5-7.57-21.77h0Z"/>
  </g>
</svg>